<?xml version="1.0" encoding="utf-8"?><!-- Uploaded to: SVG Repo, www.svgrepo.com, Generator: SVG Repo Mixer Tools -->
<svg fill="#000000" width="800px" height="800px" viewBox="0 0 24 24" id="portfolio" data-name="Line Color" xmlns="http://www.w3.org/2000/svg" class="icon line-color"><path id="primary" d="M20,12v8a1,1,0,0,1-1,1H5a1,1,0,0,1-1-1V12" style="fill: none; stroke: rgb(0, 0, 0); stroke-linecap: round; stroke-linejoin: round; stroke-width: 2;"></path><path id="primary-2" data-name="primary" d="M9,3h6a1,1,0,0,1,1,1V7a0,0,0,0,1,0,0H8A0,0,0,0,1,8,7V4A1,1,0,0,1,9,3Z" style="fill: none; stroke: rgb(0, 0, 0); stroke-linecap: round; stroke-linejoin: round; stroke-width: 2;"></path><path id="secondary" d="M13,14h2.88A5.12,5.12,0,0,0,21,8.88V8a1,1,0,0,0-1-1H4A1,1,0,0,0,3,8v.88A5.12,5.12,0,0,0,8.12,14H11" style="fill: none; stroke: rgb(44, 169, 188); stroke-linecap: round; stroke-linejoin: round; stroke-width: 2;"></path><rect id="primary-3" data-name="primary" x="11" y="13" width="2" height="2" style="fill: none; stroke: rgb(0, 0, 0); stroke-linecap: round; stroke-linejoin: round; stroke-width: 2;"></rect></svg>